<svg width="38" height="39" viewBox="0 0 38 39" fill="none" xmlns="http://www.w3.org/2000/svg">
<path d="M19 36.8154C28.4316 36.8154 36 29.006 36 19.4692C36 9.93245 28.4316 2.12305 19 2.12305C9.56839 2.12305 2 9.93245 2 19.4692C2 29.006 9.56839 36.8154 19 36.8154Z" fill="#0BCAD4" stroke="white" stroke-width="4"/>
<path d="M18.6 25.419C18.2773 25.419 18.028 25.331 17.852 25.155C17.676 24.9644 17.588 24.7077 17.588 24.385V20.777H14.046C13.738 20.777 13.496 20.6964 13.32 20.535C13.144 20.359 13.056 20.117 13.056 19.809C13.056 19.501 13.144 19.2664 13.32 19.105C13.496 18.929 13.738 18.841 14.046 18.841H17.588V15.343C17.588 15.0204 17.676 14.771 17.852 14.595C18.028 14.419 18.2847 14.331 18.622 14.331C18.9447 14.331 19.1867 14.419 19.348 14.595C19.524 14.771 19.612 15.0204 19.612 15.343V18.841H23.154C23.4767 18.841 23.7187 18.929 23.88 19.105C24.056 19.2664 24.144 19.501 24.144 19.809C24.144 20.117 24.056 20.359 23.88 20.535C23.7187 20.6964 23.4767 20.777 23.154 20.777H19.612V24.385C19.612 24.7077 19.524 24.9644 19.348 25.155C19.1867 25.331 18.9373 25.419 18.6 25.419Z" fill="white"/>
</svg>
